<?xml version="1.0" encoding="UTF-8" standalone="no"?>
<svg
   xmlns:dc="http://purl.org/dc/elements/1.1/"
   xmlns:cc="http://creativecommons.org/ns#"
   xmlns:rdf="http://www.w3.org/1999/02/22-rdf-syntax-ns#"
   xmlns:svg="http://www.w3.org/2000/svg"
   xmlns="http://www.w3.org/2000/svg"
   xmlns:sodipodi="http://sodipodi.sourceforge.net/DTD/sodipodi-0.dtd"
   xmlns:inkscape="http://www.inkscape.org/namespaces/inkscape"
   id="svg6"
   version="1.1"
   fill="none"
   height="49"
   width="126"
   sodipodi:docname="Rajbet.svg"
   inkscape:version="1.0 (4035a4fb49, 2020-05-01)">
  <sodipodi:namedview
     inkscape:document-rotation="0"
     pagecolor="#2f725d"
     bordercolor="#666666"
     borderopacity="1"
     objecttolerance="10"
     gridtolerance="10"
     guidetolerance="10"
     inkscape:pageopacity="0"
     inkscape:pageshadow="2"
     inkscape:window-width="1920"
     inkscape:window-height="1007"
     id="namedview7"
     showgrid="false"
     inkscape:zoom="9.8492063"
     inkscape:cx="63"
     inkscape:cy="24.5"
     inkscape:window-x="0"
     inkscape:window-y="0"
     inkscape:window-maximized="1"
     inkscape:current-layer="svg6" />
  <metadata
     id="metadata12">
    <rdf:RDF>
      <cc:Work
         rdf:about="">
        <dc:format>image/svg+xml</dc:format>
        <dc:type
           rdf:resource="http://purl.org/dc/dcmitype/StillImage" />
        <dc:title />
      </cc:Work>
    </rdf:RDF>
  </metadata>
  <defs
     id="defs10" />
  <path
     style="stroke-width:1;stroke-miterlimit:4;stroke-dasharray:none;stroke:#000000;stroke-opacity:1"
     id="path2"
     fill="#ffffff"
     d="m 17.53,16.27 h 1.53 c 2.46,0 3.72,0.45 3.72,2.31 0,1.86 -1.23,2.28 -3.72,2.28 H 17.53 Z M 10,32.5 h 7.83 v -7.08 h 1.59 c 2.46,0 2.64,0.93 3,3.21 l 0.6,3.87 h 8.19 l -1.23,-5.55 c -0.57,-2.61 -1.8,-3.78 -4.59,-4.11 3.45,-0.66 5.19,-2.49 5.19,-5.46 0,-4.02 -2.67,-5.7 -8.01,-5.7 H 10 Z m 40.175,-8.85 c 0,-2.61 -0.21,-4.47 -2.13,-5.76 -1.56,-1.05 -3.87,-1.5 -6.99,-1.5 -2.19,0 -4.29,0.33 -6.45,0.96 v 4.11 c 1.92,-0.87 3.81,-1.29 5.58,-1.29 2.25,0 3.27,0.72 3.27,2.34 v 0.15 c -1.08,-0.09 -2.01,-0.15 -2.79,-0.15 -5.16,0 -7.92,1.92 -7.92,5.34 0,3.12 1.98,4.86 5.52,4.86 2.64,0 4.5,-0.84 5.37,-2.37 v 2.16 h 6.54 z m -6.57,1.68 c 0.03,0.24 0.03,0.45 0.03,0.66 0,1.83 -0.84,2.79 -2.31,2.79 -1.11,0 -1.74,-0.54 -1.74,-1.47 0,-1.32 0.96,-2.01 2.82,-2.01 0.18,0 0.57,0 1.2,0.03 z M 53.655,10 v 5.13 h 7.38 V 10 Z m 0,6.81 v 14.37 c 0,2.13 -0.12,3.12 -1.59,3.12 -0.42,0 -0.84,-0.09 -1.23,-0.27 v 4.47 c 1.23,0.36 2.43,0.54 3.66,0.54 2.79,0 4.74,-0.81 5.67,-2.25 0.84,-1.29 0.87,-2.85 0.87,-4.92 V 16.81 Z" />
  <path
     style="stroke:#000000;stroke-opacity:1;stroke-width:1;stroke-miterlimit:4;stroke-dasharray:none"
     id="path4"
     fill="#fde410"
     d="m 64.343,32.5 h 6.87 v -2.61 c 0.96,1.92 2.64,2.82 5.13,2.82 4.08,0 6.54,-2.97 6.54,-7.95 0,-5.22 -2.43,-8.16 -6.72,-8.16 -1.95,0 -3.39,0.66 -4.44,2.07 V 10 h -7.38 z m 9,-11.28 c 1.32,0 1.86,1.11 1.86,3.39 0,2.28 -0.57,3.39 -1.86,3.39 -1.32,0 -1.83,-1.11 -1.83,-3.39 0,-2.28 0.51,-3.39 1.83,-3.39 z m 28.715,4.08 c 0,-6.06 -2.4,-8.91 -8.55,-8.91 -5.55,0 -8.88,3.09 -8.88,8.25 0,5.28 3.39,8.28 9.69,8.28 2.73,0 5.07,-0.39 6.78,-1.08 v -3.99 c -1.74,0.66 -3.54,0.99 -5.28,0.99 -2.49,0 -3.81,-0.81 -3.99,-2.52 h 10.23 z m -10.29,-2.01 v -0.45 c 0,-1.8 0.66,-2.82 1.95,-2.82 1.26,0 1.92,1.02 1.92,2.79 v 0.48 z m 21.14,-12.27 -7.35,2.31 v 3.48 h -2.61 v 4.59 h 2.61 v 3.81 c 0,2.52 0.03,4.41 1.23,5.91 0.93,1.14 2.52,1.8 4.59,1.8 1.68,0 3.27,-0.18 4.86,-0.66 v -4.5 c -0.63,0.15 -1.17,0.21 -1.56,0.21 -1.47,0 -1.77,-0.9 -1.77,-2.82 V 21.4 h 3.42 v -4.59 h -3.42 z" />
</svg>
